<svg width="81" height="80" viewBox="0 0 81 80" fill="none" xmlns="http://www.w3.org/2000/svg">
<g clip-path="url(#clip0_21_2280)">
<rect x="0.5" width="80" height="80" rx="40" fill="white"/>
<path d="M40.5 0C18.4817 0 0.5 17.9817 0.5 40C0.5 62.0183 18.4817 80 40.5 80C62.5183 80 80.5 62.0183 80.5 40C80.6223 17.9817 62.6407 0 40.5 0ZM40.5 1.34557C61.9067 1.34557 79.1544 18.7156 79.1544 40C79.1544 61.2844 61.9067 78.7768 40.5 78.7768C19.0933 78.7768 1.84557 61.4067 1.84557 40C1.84557 18.5933 19.2156 1.34557 40.5 1.34557Z" fill="#E6B308"/>
<path d="M40.5 3.66992C20.4388 3.66992 4.16972 19.939 4.16972 40.0002C4.16972 60.0614 20.4388 76.4528 40.6223 76.4528C60.6835 76.4528 77.0749 60.1837 77.0749 40.0002C76.9526 19.939 60.5612 3.66992 40.5 3.66992ZM40.5 5.01549C59.8272 5.01549 75.607 20.7953 75.607 40.1225C75.607 59.4497 59.8272 75.1072 40.5 75.1072C21.1728 75.1072 5.51529 59.3274 5.51529 40.0002C5.51529 20.673 21.1728 5.01549 40.5 5.01549Z" fill="#E6B308"/>
<path d="M56.4021 36.4525C55.9128 36.5748 55.4235 36.5748 54.9342 36.5748C51.2645 36.5748 48.3287 33.639 48.3287 29.9693C48.3287 26.2996 51.2645 23.3638 54.9342 23.3638C55.4235 23.3638 55.9128 23.3638 56.2798 23.4861L58.8486 20.9173C57.6254 20.428 56.2798 20.061 54.9342 20.061C50.4083 20.061 46.7385 22.9968 45.5153 27.1558H35.3624C34.1391 23.1191 30.3471 20.061 25.9434 20.061C24.5979 20.061 23.2523 20.3057 22.029 20.9173L24.5979 23.4861C25.0872 23.3638 25.4541 23.3638 25.9434 23.3638C29.6131 23.3638 32.5489 26.2996 32.5489 29.9693C32.5489 33.639 29.6131 36.6971 25.9434 36.6971C25.4541 36.6971 24.9648 36.5748 24.4755 36.5748L21.9067 39.1436C23.13 39.6329 24.4755 39.9999 25.9434 39.9999C30.4694 39.9999 34.2615 36.9418 35.3624 32.7827H45.393C46.4939 36.9418 50.2859 39.9999 54.8119 39.9999C56.2798 39.9999 57.6254 39.7552 58.8486 39.1436L56.4021 36.4525ZM35.8517 30.7032C35.8517 30.4586 35.8517 30.3363 35.8517 30.0916C35.8517 29.847 35.8517 29.6023 35.8517 29.3577H45.2706C45.2706 29.6023 45.2706 29.847 45.2706 30.0916C45.2706 30.3363 45.2706 30.4586 45.2706 30.7032H35.8517Z" fill="#00833E"/>
<path d="M34.7508 36.0856H46.2492C45.8823 35.474 45.393 34.74 45.1483 34.1284H35.8517C35.607 34.8624 35.2401 35.474 34.7508 36.0856Z" fill="#F6DC61"/>
<path d="M47.3501 37.5537H33.6498C32.9159 38.41 31.9373 39.0216 30.9587 39.5109H50.0413C49.0627 39.0216 48.0841 38.2877 47.3501 37.5537Z" fill="#F6DC61"/>
<path d="M60.9281 41.1011H19.9495L15.9128 45.0154H64.9648L60.9281 41.1011Z" fill="#F6DC61"/>
<path d="M15.3012 51.8652L17.1361 55.0457H15.0566L14.078 53.2108H13.9557L12.9771 55.0457H11.0199L12.7324 51.8652L11.0199 48.8071H13.2217L14.078 50.642H14.2003L15.0566 48.8071H17.1361L15.3012 51.8652Z" fill="#00833E"/>
<path d="M19.3379 52.4771C19.3379 53.2111 19.7049 53.4557 20.1942 53.4557C20.6835 53.4557 21.0505 53.2111 21.0505 52.4771V48.6851H23.0076V52.7218C23.0076 54.0673 21.9067 54.9236 20.3165 54.9236C18.604 54.9236 17.6254 54.0673 17.6254 52.7218V48.6851H19.5826V52.4771H19.3379Z" fill="#00833E"/>
<path d="M23.3746 54.9235L25.2095 48.6849H27.656L29.4908 54.9235H27.4113L27.1667 53.7002H25.4541L25.2095 54.9235H23.3746ZM25.8211 47.0947H27.1667L28.2676 48.1956H26.922L26.555 47.7063H26.4327L25.9434 48.1956H24.7202L25.8211 47.0947ZM26.3104 50.2752L25.8211 52.3547H26.922L26.3104 50.2752Z" fill="#00833E"/>
<path d="M30.1024 54.9236V48.6851H31.5703L33.6498 51.6208H33.7722V48.6851H35.4847V54.9236H34.0168L31.9373 51.8655H31.815V54.9236H30.1024Z" fill="#00833E"/>
<path d="M40.0107 52.1099C40.0107 52.9662 40.3777 53.4555 40.867 53.4555C41.4786 53.4555 41.7233 52.9662 41.7233 52.3545H43.5581V52.5992C43.5581 54.0671 42.4572 54.9234 40.867 54.9234C39.0321 54.9234 38.0535 53.8224 38.0535 51.9876V51.4983C38.0535 49.7857 39.0321 48.5625 40.867 48.5625C42.4572 48.5625 43.5581 49.4188 43.5581 50.8867V51.1313H41.7233C41.7233 50.5197 41.4786 50.1527 40.867 50.1527C40.2554 50.1527 40.0107 50.642 40.0107 51.4983V52.1099Z" fill="#00833E"/>
<path d="M44.1697 52.7216V48.6849H46.1269V52.477C46.1269 53.2109 46.4939 53.4555 46.9832 53.4555C47.4725 53.4555 47.8394 53.2109 47.8394 52.477V48.6849H49.7966C50.0413 48.6849 50.1636 48.5626 50.1636 48.3179V47.584H51.5092V48.5626C51.5092 49.2965 51.0199 49.9081 50.1636 49.9081H49.6743V52.7216C49.6743 54.0672 48.5734 54.9234 46.9832 54.9234C45.2706 55.0458 44.1697 54.1895 44.1697 52.7216Z" fill="#00833E"/>
<path d="M54.078 55.0458C52.2431 55.0458 51.1422 53.9448 51.1422 52.11V51.4984C51.1422 49.7858 52.1208 48.5626 54.078 48.5626C54.8119 48.5626 55.4236 48.8072 56.0352 48.8072C56.6468 48.8072 56.6468 48.5626 56.6468 48.3179V47.584H57.9924V48.5626C57.9924 49.2965 57.5031 49.9081 56.6468 49.9081C56.8914 50.2751 57.0138 50.8867 57.0138 51.4984V52.11C57.0138 53.9448 55.9129 55.0458 54.078 55.0458ZM53.0994 52.2323C53.0994 53.0886 53.4664 53.5779 54.078 53.5779C54.6896 53.5779 55.0566 53.0886 55.0566 52.2323V51.6207C55.0566 50.7644 54.6896 50.2751 54.078 50.2751C53.4664 50.2751 53.0994 50.6421 53.0994 51.4984V52.2323Z" fill="#00833E"/>
<path d="M58.1147 54.9236V48.6851H59.5826L61.6621 51.6208V48.6851H63.3746V54.9236H61.9067L59.8272 51.8655H59.7049V54.9236H58.1147Z" fill="#00833E"/>
<path d="M68.0229 50.8867C68.0229 50.5197 67.656 50.1527 67.1667 50.1527C66.5551 50.1527 66.1881 50.642 66.1881 51.4983V52.1099C66.1881 52.8438 66.4327 53.4555 67.1667 53.4555C67.7783 53.4555 68.0229 53.0885 68.0229 52.7215V52.5992H67.289V51.376H69.8578V52.5992C69.8578 53.8224 69.1239 55.0457 67.1667 55.0457C65.0872 55.0457 64.2309 53.7001 64.2309 52.1099V51.376C64.2309 49.7857 65.2095 48.5625 67.1667 48.5625C69.0015 48.5625 69.8578 49.6634 69.8578 50.7643L68.0229 50.8867Z" fill="#00833E"/>
</g>
<defs>
<clipPath id="clip0_21_2280">
<rect x="0.5" width="80" height="80" rx="40" fill="white"/>
</clipPath>
</defs>
</svg>
