<svg width="16" height="16" viewBox="0 0 16 16" fill="none" xmlns="http://www.w3.org/2000/svg">
<rect width="16" height="16" rx="8" fill="#006838"/>
<path d="M8 16C3.58887 16 0 12.4114 0 8C0 3.58865 3.58887 0 8 0C12.4111 0 16 3.58887 16 8C16 12.4111 12.4114 16 8 16ZM8 0.121411C3.6557 0.121411 0.121411 3.6557 0.121411 8C0.121411 12.3443 3.6557 15.8786 8 15.8786C12.3443 15.8786 15.8786 12.3443 15.8786 8C15.8786 3.6557 12.3443 0.121411 8 0.121411V0.121411Z" fill="#D4AF34"/>
<path d="M7.99996 15.2657C3.99361 15.2657 0.735107 12.0075 0.735107 7.99999C0.735107 3.99252 3.99361 0.735138 7.99996 0.735138C12.0063 0.735138 15.2657 3.99364 15.2657 7.99999C15.2657 12.0063 12.0074 15.2657 7.99996 15.2657ZM7.99996 0.855881C4.06066 0.855881 0.855628 4.06069 0.855628 7.99999C0.855628 11.9393 4.06066 15.1443 7.99996 15.1443C11.9393 15.1443 15.1443 11.9393 15.1443 7.99999C15.1443 4.06069 11.9393 0.855881 7.99996 0.855881V0.855881Z" fill="#D4AF34"/>
<path d="M5.06959 4.00858C4.79685 4.00836 4.52703 4.06472 4.27719 4.1741L4.79246 4.6896C4.9872 4.64802 5.18878 4.65064 5.38236 4.69727C5.57595 4.7439 5.75662 4.83334 5.91107 4.95902C6.06552 5.0847 6.18982 5.24342 6.27482 5.42348C6.35982 5.60355 6.40336 5.80039 6.40224 5.99951C6.40111 6.19863 6.35535 6.39496 6.26832 6.57406C6.18128 6.75315 6.0552 6.91045 5.89934 7.03438C5.74348 7.1583 5.56181 7.2457 5.36771 7.29014C5.17361 7.33457 4.97201 7.33492 4.77776 7.29114L4.26538 7.80352C4.5352 7.92289 4.82826 7.98055 5.12319 7.97227C5.41812 7.96399 5.70749 7.88999 5.97018 7.75567C6.23288 7.62135 6.46229 7.43009 6.64168 7.19585C6.82107 6.9616 6.94592 6.69027 7.00712 6.40164C7.06832 6.11301 7.06434 5.81436 6.99545 5.52747C6.92656 5.24057 6.79452 4.97267 6.60894 4.7433C6.42336 4.51392 6.18893 4.32886 5.92273 4.2016C5.65654 4.07434 5.36531 4.00809 5.07026 4.00769L5.06959 4.00858ZM11.2054 7.29114C11.0113 7.33474 10.8098 7.33426 10.6158 7.28974C10.4219 7.24522 10.2404 7.15779 10.0846 7.03388C9.92891 6.90997 9.80295 6.75273 9.716 6.57373C9.62905 6.39472 9.58334 6.1985 9.58221 5.9995C9.58109 5.8005 9.62458 5.60378 9.7095 5.4238C9.79442 5.24383 9.9186 5.08517 10.0729 4.95951C10.2272 4.83385 10.4077 4.74437 10.6012 4.69766C10.7946 4.65095 10.9961 4.6482 11.1907 4.6896L11.706 4.1741C11.4038 4.04274 11.0736 3.98878 10.7453 4.01709C10.4169 4.04541 10.1009 4.15512 9.8256 4.33629C9.55033 4.51746 9.32457 4.76439 9.16871 5.05474C9.01286 5.3451 8.93184 5.66972 8.93297 5.99925C8.9341 6.32878 9.01735 6.65284 9.1752 6.94212C9.33304 7.23139 9.5605 7.47676 9.837 7.65604C10.1135 7.83532 10.4303 7.94285 10.7588 7.96891C11.0873 7.99497 11.4172 7.93874 11.7185 7.8053L11.2054 7.29114Z" fill="white"/>
<path d="M9.32415 5.83664C9.34057 5.69694 9.37766 5.56045 9.4342 5.43164H6.69788C6.75441 5.56045 6.7915 5.69694 6.80793 5.83664H9.32415Z" fill="white"/>
<path d="M9.32042 6.11691H6.81177C6.79865 6.25617 6.76479 6.39267 6.7113 6.52191H9.42067C9.36735 6.39263 9.33356 6.25614 9.32042 6.11691V6.11691Z" fill="white"/>
<path d="M6.8374 7.20738H9.14667C9.05923 7.08058 8.98573 6.94472 8.92746 6.80215H7.05616C6.99794 6.94466 6.9246 7.08051 6.8374 7.20738V7.20738Z" fill="#FFEB89"/>
<path d="M9.37691 7.4874H6.60695C6.44872 7.65014 6.2658 7.7869 6.06494 7.89262H9.91891C9.71805 7.7869 9.53514 7.65014 9.37691 7.4874V7.4874Z" fill="#FFEB89"/>
<path d="M12.1157 8.2063H3.85889L3.04443 9.00806H12.9217L12.1157 8.2063Z" fill="#FFEB89"/>
<path d="M2.92128 10.3763L3.29264 11.0061H2.86447L2.67111 10.6441H2.6564L2.46482 11.0061H2.05848L2.41247 10.3763L2.05603 9.75455H2.50447L2.67668 10.1333H2.69227L2.8647 9.75455H3.29287L2.92128 10.3763Z" fill="white"/>
<path d="M3.73035 10.5193C3.73035 10.6577 3.80186 10.7118 3.89921 10.7118C3.99656 10.7118 4.06785 10.655 4.06785 10.5193V9.75455H4.45302V10.5735C4.45302 10.849 4.24206 11.0272 3.89854 11.0272C3.55502 11.0272 3.34473 10.849 3.34473 10.5735V9.75455H3.72968L3.73035 10.5193Z" fill="white"/>
<path d="M4.54321 11.0061L4.92193 9.75455H5.40958L5.78562 11.0061H5.37572L5.32158 10.7697H4.97963L4.92326 11.0061H4.54321ZM5.03331 9.42084H5.30666L5.52943 9.65297H5.26923L5.17767 9.55294H5.15651L5.05693 9.65297H4.79807L5.03331 9.42084ZM5.14336 10.0727L5.04267 10.4991H5.25987L5.16274 10.0727H5.14336Z" fill="white"/>
<path d="M5.8905 11.0061V9.75455H6.18011L6.6056 10.3589H6.62031V9.75455H6.97273V11.0061H6.68714L6.25808 10.3901H6.24338V11.0061H5.8905Z" fill="white"/>
<path d="M7.88615 10.4396C7.88615 10.6194 7.95298 10.7156 8.0686 10.7156C8.18422 10.7156 8.24103 10.6238 8.24103 10.5046H8.60504V10.5605C8.60504 10.8439 8.38048 11.0272 8.06504 11.0272C7.69457 11.0272 7.49207 10.7945 7.49207 10.4369V10.324C7.49207 9.96551 7.69457 9.7345 8.06504 9.7345C8.38048 9.7345 8.60504 9.91695 8.60504 10.2023V10.2565H8.24058C8.24058 10.1373 8.18199 10.0464 8.06816 10.0464C7.95432 10.0464 7.88615 10.1424 7.88615 10.3231V10.4396Z" fill="white"/>
<path d="M8.74634 10.5706V9.75457H9.13129V10.5167C9.13129 10.655 9.2028 10.7092 9.30015 10.7092C9.3975 10.7092 9.46879 10.6523 9.46879 10.5167V9.75457H9.85486C9.9081 9.75457 9.92904 9.7323 9.92904 9.67772V9.5318H10.2068V9.7372C10.2068 9.88846 10.1088 10.0132 9.94553 10.0132H9.85397V10.5701C9.85397 10.8462 9.643 11.0242 9.30015 11.0242C8.9573 11.0242 8.74634 10.8466 8.74634 10.5706Z" fill="white"/>
<path d="M10.7316 11.0273C10.3493 11.0273 10.1401 10.7954 10.1401 10.4443V10.3213C10.1401 9.96486 10.3493 9.73451 10.7316 9.73451C10.8875 9.73451 10.9956 9.77907 11.1186 9.77907C11.2299 9.77907 11.2386 9.7305 11.2386 9.67548V9.52979H11.5173V9.73518C11.5173 9.88644 11.4193 10.0112 11.256 10.0112H11.2542C11.3021 10.1077 11.3257 10.2143 11.3231 10.322V10.4449C11.3222 10.7954 11.1148 11.0273 10.7316 11.0273ZM10.5344 10.4481C10.5344 10.6287 10.6086 10.7241 10.7316 10.7241C10.8546 10.7241 10.9296 10.6287 10.9296 10.4481V10.3144C10.9296 10.1346 10.8535 10.0386 10.7316 10.0386C10.6097 10.0386 10.5344 10.1346 10.5344 10.3144V10.4481Z" fill="white"/>
<path d="M11.5352 11.0061V9.75455H11.8248L12.2503 10.3589H12.265V9.75455H12.6181V11.0061H12.332L11.903 10.3901H11.8883V11.0061H11.5352Z" fill="white"/>
<path d="M13.5381 10.1865C13.5308 10.1132 13.4713 10.0426 13.3599 10.0426C13.2316 10.0426 13.1656 10.1379 13.1656 10.3113V10.4431C13.1656 10.5835 13.2013 10.7192 13.3699 10.7192C13.4911 10.7192 13.5481 10.6403 13.5481 10.5679V10.5532H13.3922V10.2983H13.9084V10.5331C13.9084 10.7782 13.758 11.0272 13.3592 11.0272C12.9375 11.0272 12.776 10.7512 12.776 10.4451V10.3066C12.776 9.97843 12.9778 9.7345 13.363 9.7345C13.7379 9.7345 13.9084 9.9673 13.9084 10.1865H13.5381Z" fill="white"/>
</svg>
