<svg width="41" height="40" viewBox="0 0 41 40" fill="none" xmlns="http://www.w3.org/2000/svg">
<g clip-path="url(#clip0_90_322)">
<path fill-rule="evenodd" clip-rule="evenodd" d="M20.5 0C9.46875 0 0.5 8.96875 0.5 20C0.5 31.0312 9.46875 40 20.5 40C31.5312 40 40.5 31.0312 40.5 20C40.5 8.96875 31.5312 0 20.5 0Z" fill="#4BAE4F"/>
<path d="M16.6484 29.1484C14.0938 26.5937 11.5547 24.0156 8.99219 21.4609C8.71094 21.1797 8.71094 20.7109 8.99219 20.4297L11.9375 17.4844C12.2188 17.2031 12.6875 17.2031 12.9688 17.4844L17.1797 21.6953L28.0078 10.8594C28.2969 10.5781 28.7578 10.5781 29.0469 10.8594L32 13.8125C32.2891 14.1016 32.2891 14.5625 32 14.8437L17.6797 29.1484C17.3984 29.4375 16.9375 29.4375 16.6484 29.1484Z" fill="white"/>
</g>
<defs>
<clipPath id="clip0_90_322">
<rect width="40" height="40" fill="white" transform="translate(0.5)"/>
</clipPath>
</defs>
</svg>
