<svg width="24" height="25" viewBox="0 0 24 25" fill="none" xmlns="http://www.w3.org/2000/svg">
<g clip-path="url(#clip0_90_87)">
<path d="M23.7887 5.26817L16.51 12.5L23.7887 19.7318C23.9203 19.4568 24.0001 19.1528 24.0001 18.8281V6.17188C24.0001 5.84717 23.9203 5.54319 23.7887 5.26817Z" fill="white"/>
<path d="M21.8905 4.0625H2.10927C1.78457 4.0625 1.48058 4.14233 1.20557 4.27391L10.5085 13.53C11.3311 14.3525 12.6687 14.3525 13.4913 13.53L22.7942 4.27391C22.5192 4.14233 22.2152 4.0625 21.8905 4.0625Z" fill="white"/>
<path d="M0.211406 5.26817C0.0798281 5.54319 0 5.84717 0 6.17188V18.8281C0 19.1528 0.0798281 19.4569 0.211406 19.7318L7.49011 12.5L0.211406 5.26817Z" fill="white"/>
<path d="M15.5155 13.4943L14.4855 14.5242C13.115 15.8948 10.8848 15.8948 9.51421 14.5242L8.48427 13.4943L1.20557 20.7261C1.48058 20.8577 1.78457 20.9375 2.10927 20.9375H21.8905C22.2152 20.9375 22.5192 20.8577 22.7942 20.7261L15.5155 13.4943Z" fill="white"/>
</g>
<defs>
<clipPath id="clip0_90_87">
<rect width="24" height="24" fill="white" transform="translate(0 0.5)"/>
</clipPath>
</defs>
</svg>
