<svg width="27" height="27" viewBox="0 0 27 27" fill="none" xmlns="http://www.w3.org/2000/svg">
<path d="M9.42781 9.9599C10.2108 11.5907 11.2782 13.1192 12.63 14.471C13.9817 15.8227 15.5102 16.8901 17.141 17.6731C17.2813 17.7405 17.3515 17.7742 17.4402 17.8C17.7556 17.892 18.1429 17.8259 18.41 17.6347C18.4852 17.5808 18.5495 17.5165 18.6781 17.3879C19.0714 16.9946 19.268 16.798 19.4658 16.6694C20.2115 16.1845 21.1729 16.1845 21.9187 16.6694C22.1164 16.798 22.3131 16.9946 22.7064 17.3879L22.9256 17.6072C23.5235 18.205 23.8224 18.504 23.9848 18.825C24.3078 19.4635 24.3078 20.2176 23.9848 20.8561C23.8224 21.1771 23.5235 21.4761 22.9256 22.074L22.7483 22.2513C22.1525 22.8471 21.8545 23.145 21.4495 23.3726C21.0001 23.625 20.302 23.8066 19.7865 23.805C19.322 23.8036 19.0044 23.7135 18.3694 23.5333C14.9569 22.5647 11.7367 20.7372 9.05024 18.0507C6.36376 15.3642 4.53623 12.1441 3.56764 8.73149C3.38741 8.09649 3.29729 7.77899 3.29591 7.31442C3.29437 6.79892 3.47591 6.10087 3.72838 5.65143C3.95591 5.24639 4.25382 4.94848 4.84965 4.35265L5.02699 4.17531C5.62486 3.57744 5.92379 3.2785 6.24485 3.11612C6.88336 2.79316 7.6374 2.79316 8.27591 3.11612C8.59696 3.2785 8.8959 3.57744 9.49377 4.17531L9.713 4.39454C10.1063 4.78785 10.303 4.9845 10.4315 5.18225C10.9164 5.928 10.9164 6.88941 10.4315 7.63516C10.303 7.83291 10.1063 8.02956 9.713 8.42287C9.5844 8.55147 9.5201 8.61577 9.46628 8.69093C9.27501 8.95804 9.20898 9.34533 9.30091 9.66073C9.32679 9.74949 9.36046 9.81962 9.42781 9.9599Z" stroke="white" stroke-width="2" stroke-linecap="round" stroke-linejoin="round"/>
</svg>
