<svg width="25" height="25" viewBox="0 0 25 25" fill="none" xmlns="http://www.w3.org/2000/svg">
<path d="M10.8806 3.43522L1.7874 19.1839C1.62314 19.4683 1.53665 19.7909 1.53662 20.1193C1.53659 20.4478 1.62302 20.7704 1.78722 21.0548C1.95142 21.3393 2.18761 21.5754 2.47204 21.7397C2.75646 21.9039 3.07911 21.9903 3.40753 21.9903H21.5924C21.9208 21.9903 22.2434 21.9039 22.5279 21.7397C22.8123 21.5754 23.0485 21.3393 23.2127 21.0548C23.3769 20.7704 23.4633 20.4478 23.4633 20.1193C23.4633 19.7909 23.3768 19.4683 23.2125 19.1839L14.1203 3.43522C13.9562 3.15088 13.72 2.91476 13.4357 2.75059C13.1513 2.58643 12.8288 2.5 12.5004 2.5C12.1721 2.5 11.8496 2.58643 11.5652 2.75059C11.2809 2.91476 11.0447 3.15088 10.8806 3.43522Z" fill="#F97316"/>
<path d="M12.6193 8.2926H12.3821C11.7981 8.2926 11.3247 8.76601 11.3247 9.35V14.4042C11.3247 14.9881 11.7981 15.4616 12.3821 15.4616H12.6193C13.2033 15.4616 13.6767 14.9881 13.6767 14.4042V9.35C13.6767 8.76601 13.2033 8.2926 12.6193 8.2926Z" fill="white"/>
<path d="M12.5007 19.47C13.1502 19.47 13.6767 18.9435 13.6767 18.294C13.6767 17.6446 13.1502 17.118 12.5007 17.118C11.8512 17.118 11.3247 17.6446 11.3247 18.294C11.3247 18.9435 11.8512 19.47 12.5007 19.47Z" fill="white"/>
</svg>
